<?xml version="1.0" encoding="utf-8"?>
<!-- Generator: Adobe Illustrator 24.0.2, SVG Export Plug-In . SVG Version: 6.00 Build 0)  -->
<svg version="1.1" id="Layer_1" xmlns="http://www.w3.org/2000/svg" xmlns:xlink="http://www.w3.org/1999/xlink" x="0px" y="0px"
	 viewBox="0 0 85 85" style="enable-background:new 0 0 85 85;" xml:space="preserve">
<style type="text/css">
	.st0{fill:#037FFF;}
	.st1{fill:none;}
</style>
<g>
	<path class="st0" d="M69.66,12c-14.74,0-29.47,0-44.21,0c-2.11,0-3.35,1.25-3.35,3.37c0,4.73,0,9.46,0,14.19c0,0.25,0,0.49,0,0.77
		c-2.36,0-4.62,0-6.89,0c-3.14,0.01-5.32,2.18-5.33,5.32c0,8,0,15.99,0,23.99c0,3.13,2.19,5.31,5.33,5.31c2.93,0.01,5.85,0,8.78,0
		c0.23,0,0.45,0,0.76,0c-0.44,1.32-0.84,2.56-1.28,3.8c-0.05,0.14-0.35,0.26-0.54,0.27c-0.97,0.03-1.95,0-2.93,0.02
		c-1.61,0.04-2.93,1.3-2.99,2.89c-0.04,1.04-0.01,2.08-0.01,3.18c10.21,0,20.35,0,30.53,0c0-0.99,0.01-1.94,0-2.89
		c-0.02-1.87-1.3-3.16-3.16-3.17c-0.93-0.01-1.87,0.01-2.8-0.01c-0.17,0-0.44-0.08-0.48-0.18c-0.45-1.27-0.86-2.55-1.31-3.88
		c0.33,0,0.56,0,0.79,0c3.01,0,6.02,0.02,9.03-0.01c2.79-0.03,4.98-2.24,5.04-5.02c0.01-0.35,0-0.7,0-1.08c0.33,0,0.56,0,0.79,0
		c4.73,0,9.46,0,14.18,0c2.08,0,3.35-1.25,3.35-3.31c0-13.41,0-26.81,0-40.22C73,13.25,71.74,12,69.66,12z M43.7,71.07
		c1.69,0,1.88,0.21,1.8,1.98c-8.79,0-17.59,0-26.44,0c0-0.37-0.04-0.72,0.01-1.07c0.06-0.52,0.39-0.83,0.92-0.9
		c0.21-0.03,0.42-0.01,0.64-0.01C28.32,71.07,36.01,71.07,43.7,71.07z M25.57,69c0.43-1.31,0.85-2.59,1.29-3.86
		c0.03-0.1,0.27-0.18,0.41-0.18c3.35-0.01,6.7-0.01,10.05,0c0.14,0,0.37,0.14,0.41,0.27c0.43,1.23,0.84,2.48,1.26,3.77
		C34.51,69,30.09,69,25.57,69z M52.57,60.39c-0.19,1.58-1.51,2.53-3.23,2.53c-10.33,0-20.66,0-30.98,0c-1.1,0-2.21,0.01-3.31,0
		c-1.79-0.02-3.09-1.32-3.11-3.09c-0.01-0.97,0-1.95,0-2.99c13.6,0,27.12,0,40.67,0C52.6,58.04,52.71,59.23,52.57,60.39z
		 M52.65,54.74c-13.58,0-27.1,0-40.72,0c0-0.21,0-0.43,0-0.65c0-6.13,0-12.26,0-18.38c0-2.07,1.25-3.33,3.32-3.33
		c11.36,0,22.72,0,34.08,0c2.04,0,3.31,1.26,3.31,3.28c0,6.17,0,12.34,0,18.51C52.65,54.35,52.65,54.53,52.65,54.74z M70.97,22.93
		c0,10.8,0,21.6,0,32.39c0,1.21-0.29,1.49-1.5,1.49c-4.69,0-9.37,0-14.06,0c-0.21,0-0.42,0-0.68,0c0-0.67,0-1.32,0-2.03
		c4.71,0,9.43,0,14.17,0c0-6.13,0-12.19,0-18.32c-4.72,0-9.43,0-14.19,0c-0.03-0.61,0-1.16-0.08-1.7c-0.39-2.66-2.48-4.43-5.21-4.43
		c-8.14-0.01-16.29,0-24.43,0c-0.25,0-0.51,0-0.8,0c0-2.71,0-5.39,0-8.12c15.6,0,31.16,0,46.78,0
		C70.97,22.47,70.97,22.7,70.97,22.93z M54.71,52.69c0-4.74,0-9.44,0-14.18c4.05,0,8.07,0,12.14,0c0,4.7,0,9.42,0,14.18
		C62.83,52.69,58.8,52.69,54.71,52.69z M70.97,20.13c-15.64,0-31.19,0-46.79,0c-0.01-0.16-0.04-0.3-0.04-0.44
		c0-1.48-0.01-2.97,0-4.45c0-0.8,0.38-1.17,1.16-1.19c0.13,0,0.25,0,0.38,0c14.58,0,29.17,0,43.75,0c1.26,0,1.53,0.27,1.53,1.52
		C70.97,17.07,70.97,18.57,70.97,20.13z"/>
	<path class="st0" d="M30.28,26.21c0-0.67,0-1.29,0-1.96c12.88,0,25.74,0,38.62,0c0,0.65,0,1.28,0,1.96
		C56.05,26.21,43.19,26.21,30.28,26.21z"/>
	<path class="st0" d="M68.9,28.33c0,0.66,0,1.29,0,1.96c-4.04,0-8.07,0-12.14,0c0-0.64,0-1.28,0-1.96
		C60.79,28.33,64.81,28.33,68.9,28.33z"/>
	<path class="st0" d="M56.77,32.39c4.05,0,8.06,0,12.12,0c0,0.66,0,1.3,0,1.98c-4.03,0-8.05,0-12.12,0
		C56.77,33.75,56.77,33.1,56.77,32.39z"/>
	<path class="st0" d="M28.19,24.26c0,0.65,0,1.28,0,1.95c-0.64,0-1.28,0-1.96,0c0-0.64,0-1.28,0-1.95
		C26.86,24.26,27.48,24.26,28.19,24.26z"/>
	<path class="st0" d="M42.51,34.42c2.71,0,5.36,0,8.05,0c0,0.65,0,1.29,0,1.98c-2.66,0-5.34,0-8.05,0
		C42.51,35.76,42.51,35.11,42.51,34.42z"/>
	<path class="st0" d="M50.58,38.52c0,0.67,0,1.3,0,1.96c-2.69,0-5.35,0-8.06,0c0-0.63,0-1.27,0-1.96
		C45.18,38.52,47.85,38.52,50.58,38.52z"/>
	<path class="st0" d="M50.58,42.6c0,0.67,0,1.3,0,1.96c-2.69,0-5.35,0-8.06,0c0-0.63,0-1.27,0-1.96
		C45.18,42.6,47.85,42.6,50.58,42.6z"/>
	<path class="st0" d="M42.48,48.62c0-0.67,0-1.28,0-1.95c2.68,0,5.36,0,8.08,0c0,0.62,0,1.26,0,1.95
		C47.89,48.62,45.21,48.62,42.48,48.62z"/>
	<path class="st0" d="M44.52,52.7c0-0.67,0-1.28,0-1.94c0.65,0,1.29,0,1.98,0c0,0.62,0,1.26,0,1.94
		C45.86,52.7,45.21,52.7,44.52,52.7z"/>
	<path class="st0" d="M48.6,52.7c0-0.65,0-1.28,0-1.95c0.64,0,1.28,0,1.96,0c0,0.64,0,1.28,0,1.95C49.93,52.7,49.31,52.7,48.6,52.7z
		"/>
	<path class="st0" d="M26.19,18.07c0-0.67,0-1.28,0-1.94c0.65,0,1.29,0,1.98,0c0,0.62,0,1.26,0,1.94
		C27.53,18.07,26.89,18.07,26.19,18.07z"/>
	<path class="st0" d="M30.29,16.09c0.67,0,1.28,0,1.95,0c0,0.65,0,1.29,0,1.98c-0.62,0-1.26,0-1.95,0
		C30.29,17.43,30.29,16.79,30.29,16.09z"/>
	<path class="st0" d="M34.36,16.11c0.65,0,1.28,0,1.95,0c0,0.64,0,1.28,0,1.97c-0.64,0-1.28,0-1.95,0
		C34.36,17.44,34.36,16.81,34.36,16.11z"/>
	<path class="st0" d="M27.24,58.88c0.67,0,1.3,0,1.96,0c0,0.65,0,1.28,0,1.96c-0.63,0-1.27,0-1.96,0
		C27.24,60.21,27.24,59.57,27.24,58.88z"/>
	<path class="st0" d="M31.3,60.84c0-0.66,0-1.29,0-1.95c0.67,0,1.31,0,1.98,0c0,0.65,0,1.28,0,1.95C32.64,60.84,32,60.84,31.3,60.84
		z"/>
	<g>
		<path class="st1" d="M35.38,60.84c0.69,0,1.33,0,1.98,0c0-0.66,0-1.27,0-1.94c-0.66,0-1.32,0-1.98,0
			C35.38,59.56,35.38,60.21,35.38,60.84z"/>
		<path class="st0" d="M37.36,58.9c-0.66,0-1.32,0-1.98,0c0,0.66,0,1.3,0,1.94c0.69,0,1.33,0,1.98,0
			C37.36,60.18,37.36,59.57,37.36,58.9z"/>
	</g>
	<path class="st0" d="M37.16,34.41c-6.64,0-13.27,0-19.91,0c-2.02,0-3.28,1.27-3.29,3.3c0,3.9,0,7.8,0,11.71
		c0,2.07,1.26,3.32,3.34,3.32c3.29,0,6.57,0,9.86,0c3.35,0,6.7,0,10.05,0c1.94,0,3.22-1.29,3.22-3.24c0.01-3.94,0.01-7.89,0-11.83
		C40.43,35.68,39.15,34.41,37.16,34.41z M38.39,49.3c0,1.08-0.32,1.4-1.4,1.4c-6.53,0-13.06,0-19.59,0c-1.08,0-1.4-0.32-1.4-1.4
		c0-3.82,0-7.64,0-11.46c0-1.08,0.32-1.4,1.4-1.4c3.27,0,6.53,0,9.8,0s6.53,0,9.8,0c1.08,0,1.4,0.32,1.4,1.4
		C38.4,41.66,38.4,45.48,38.39,49.3z"/>
	<path class="st0" d="M26.14,49.98c-0.68-0.23-1.25-0.42-1.93-0.64c1.35-4.07,2.7-8.11,4.06-12.21c0.65,0.21,1.25,0.41,1.93,0.63
		C28.84,41.84,27.5,45.88,26.14,49.98z"/>
	<path class="st0" d="M22.45,48.26c-1.59-1.59-3.15-3.15-4.69-4.69c1.53-1.53,3.1-3.1,4.69-4.69c0.38,0.43,0.81,0.91,1.25,1.4
		c-1.01,1.01-2.11,2.09-3.27,3.25c1.19,1.14,2.32,2.22,3.46,3.31C23.34,47.39,22.88,47.83,22.45,48.26z"/>
	<path class="st0" d="M30.57,40.3c0.53-0.56,0.96-1.01,1.38-1.46c1.58,1.6,3.14,3.18,4.64,4.7c-1.51,1.51-3.09,3.09-4.69,4.69
		c-0.37-0.39-0.8-0.85-1.26-1.34c1.06-1.05,2.17-2.15,3.3-3.27C32.76,42.46,31.66,41.38,30.57,40.3z"/>
</g>
</svg>
