<?xml version="1.0" encoding="utf-8"?>
<!-- Generator: Adobe Illustrator 24.0.2, SVG Export Plug-In . SVG Version: 6.00 Build 0)  -->
<svg version="1.1" id="Layer_1" xmlns="http://www.w3.org/2000/svg" xmlns:xlink="http://www.w3.org/1999/xlink" x="0px" y="0px"
	 viewBox="0 0 85 85" style="enable-background:new 0 0 85 85;" xml:space="preserve">
<style type="text/css">
	.st0{fill:#037FFF;}
</style>
<g>
	<path class="st0" d="M71.49,52.46c-0.86-0.02-1.51-0.39-1.86-1.2c-0.35-0.81-0.16-1.53,0.45-2.15c0.45-0.45,0.92-0.88,1.3-1.25
		c-1.45-1.45-2.84-2.84-4.3-4.3c-0.36,0.38-0.75,0.83-1.18,1.25c-0.71,0.71-1.43,0.86-2.25,0.5c-0.84-0.37-1.16-1.06-1.16-1.94
		c0-0.59,0-1.18,0-1.82c-0.71,0-1.34,0-1.89,0c-0.28-1.36-0.5-2.65-0.82-3.93c-0.13-0.5-0.06-0.8,0.31-1.18
		c3.68-3.65,7.35-7.3,11-10.99c3.42-3.46,3.02-9.01-0.82-11.99c-3.15-2.44-7.63-2.17-10.51,0.67c-3.71,3.68-7.39,7.38-11.09,11.06
		c-0.17,0.17-0.49,0.31-0.7,0.28c-1.3-0.21-2.59-0.46-3.88-0.74c-0.26-0.06-0.57-0.22-0.72-0.44c-1.88-2.74-5-4.07-8.23-3.4
		c-0.5,0.1-0.66-0.04-0.9-0.42c-2.18-3.35-5.3-5-9.28-4.66c-3.84,0.33-6.6,2.4-8.22,5.9c-0.91,1.97-1.03,4.04-0.59,6.17
		c-0.16,0.07-0.29,0.12-0.42,0.17c-2.52,1.02-4.03,3.52-3.76,6.21c0.26,2.55,2.23,4.74,4.85,5.16c1.25,0.2,2.55,0.11,3.83,0.12
		c1.46,0.02,2.93,0,4.41,0c-0.01,0.13-0.02,0.21-0.03,0.29c-0.36,2.59-0.3,5.14,0.65,7.61c0.16,0.41,0.1,0.65-0.2,0.96
		c-2.7,2.67-5.38,5.36-8.06,8.05c-0.19,0.19-0.38,0.4-0.47,0.63c-1.62,4.18-3.24,8.36-4.82,12.56c-0.18,0.47-0.19,1.08-0.08,1.57
		c0.38,1.63,2.01,2.42,3.64,1.8c4.08-1.55,8.15-3.12,12.21-4.7c0.3-0.11,0.59-0.3,0.81-0.52c1.85-1.83,3.68-3.67,5.52-5.51
		c0.14-0.14,0.29-0.27,0.36-0.34c0.23,0.8,0.47,1.58,0.75,2.54c-1.18,1.83-0.72,3.54,1.39,4.64c0.17,0.09,0.29,0.31,0.39,0.5
		c1.13,2.29,2.94,3.59,5.53,3.6c2.61,0.01,4.43-1.29,5.58-3.61c0.11-0.23,0.33-0.46,0.56-0.57c0.72-0.35,1.28-0.84,1.57-1.59
		c0.15-0.38,0.22-0.8,0.39-1.44c0.41,0.51,0.72,0.91,1.09,1.37c0.45-0.48,0.82-0.89,1.21-1.28c0.78-0.79,1.48-0.96,2.33-0.58
		c0.89,0.4,1.18,1.15,1.16,2.07c-0.01,0.55,0,1.1,0,1.64c2.03,0,3.97,0,5.95,0c0-0.62,0-1.2,0-1.78c0.01-0.97,0.44-1.66,1.23-1.97
		c0.85-0.33,1.58-0.11,2.19,0.54c0.42,0.45,0.81,0.92,1.16,1.32c1.52-1.52,2.9-2.9,4.34-4.34c-0.38-0.36-0.79-0.76-1.21-1.16
		c-0.68-0.64-0.95-1.39-0.57-2.29c0.38-0.9,1.12-1.21,2.04-1.19c0.57,0.01,1.14,0,1.69,0c0-2.03,0-3.96,0-5.95
		C72.72,52.46,72.11,52.47,71.49,52.46z M58.83,34.78c-0.89-1.32-1.81-2.7-2.69-4.02c1.45-1.45,2.95-2.95,4.42-4.41
		c1.06,1.06,2.21,2.2,3.36,3.35C62.23,31.37,60.52,33.09,58.83,34.78z M59.34,50.51c2.55-0.2,4.78,1.8,5.12,4.51
		c0.29,2.34-1.56,4.82-3.93,5.25c-0.32,0.06-0.65,0.09-0.84,0.12c-3.23,0.02-5.61-2.86-4.99-5.87c0.05-0.24,0.23-0.47,0.4-0.66
		c0.84-0.94,1.64-1.92,2.57-2.75C58.08,50.74,58.77,50.56,59.34,50.51z M65.91,13.86c2.6,0.26,4.63,1.96,5.26,4.31
		c0.8,2.99-0.47,5.2-2.71,7.05c-2.82-2.82-5.61-5.61-8.42-8.43C61.54,14.93,63.36,13.6,65.91,13.86z M58.53,18.42
		c2.72,2.72,5.53,5.53,8.37,8.37c-0.42,0.42-0.9,0.9-1.32,1.32c-2.81-2.81-5.62-5.61-8.44-8.44C57.56,19.3,58.07,18.83,58.53,18.42z
		 M55.65,21.35c1.08,1.08,2.21,2.21,3.3,3.3c-1.48,1.48-2.97,2.97-4.45,4.46c-1.29-0.86-2.66-1.79-3.97-2.67
		C52.19,24.78,53.92,23.07,55.65,21.35z M18.19,37.6c-2.22,0-3.78-1.27-4.17-3.36c-0.37-2.01,1.05-4.06,3.09-4.45
		c2.15-0.41,4.22,0.91,4.65,2.97c0.06,0.28,0.1,0.56,0.15,0.86c0.63,0,1.25,0,1.86,0c0.56-2.58-2.18-5.52-5.53-5.95
		c-1.02-2.91,0.35-7.41,4.44-9.21l2.51-0.62c2.44-0.19,4.92,0.76,6.48,2.51c0.39,0.44,0.72,0.93,0.98,1.46
		c-0.5,0.42-1.04,0.81-1.5,1.27c-1.2,1.17-1.96,2.59-2.22,4.25c-0.06,0.35-0.22,0.51-0.55,0.64c-1.57,0.61-2.57,2.06-2.52,3.65
		c0.63,0,1.25,0,1.89,0c0.48-1.37,1.14-1.98,2.11-1.93c0.98,0.04,1.61,0.66,1.97,1.98c0.31,0,0.63,0,0.95,0c0.31,0,0.61,0,0.91,0
		c0.19-1.38-0.78-2.96-2.26-3.58c-0.52-0.22-0.55-0.45-0.42-0.92c0.73-2.66,3.26-4.54,5.94-4.4c2.9,0.16,5.22,2.24,5.62,5.07
		c0.04,0.31,0.1,0.61,0.09,0.92c-0.02,0.79-0.16,1.45-0.96,1.96c-1.34,0.87-1.96,2.23-2.02,3.88c0.66,0,1.29,0,1.94,0
		c0.08-0.32,0.14-0.66,0.26-0.98c0.51-1.39,1.94-2.17,3.36-1.86c1.45,0.32,2.48,1.65,2.36,3.05c-0.13,1.54-1.32,2.7-2.88,2.8
		c-0.12,0.01-0.25,0.01-0.37,0.01C35.65,37.6,26.92,37.6,18.19,37.6z M26.89,50.08c0.98,1.15,2.04,2.38,3.04,3.54
		c-2.36,2.36-4.76,4.76-7.16,7.16c-1.07-1.07-2.21-2.21-3.29-3.29C21.95,55.02,24.44,52.54,26.89,50.08z M14.85,71.21
		c-0.19,0.06-0.53-0.01-0.65-0.16c-0.14-0.16-0.22-0.5-0.15-0.71c0.27-0.84,0.61-1.65,0.91-2.44c0.79,0.79,1.57,1.57,2.38,2.37
		C16.52,70.59,15.69,70.93,14.85,71.21z M22.76,68.2c-0.96,0.37-1.91,0.76-2.88,1.09c-0.19,0.07-0.53,0.01-0.67-0.13
		c-1.07-1.03-2.11-2.08-3.15-3.14c-0.11-0.11-0.23-0.34-0.19-0.45c0.78-2.09,1.59-4.18,2.38-6.23c2.55,2.55,5.08,5.08,7.64,7.64
		C24.88,67.38,23.82,67.79,22.76,68.2z M33.92,59.81c-2.01,2.01-4.02,4.03-6.03,6.04c-1.2-1.2-2.34-2.34-3.45-3.45
		c2.36-2.35,4.74-4.74,7.24-7.24c0.76,0.9,1.61,1.83,2.38,2.83C34.79,58.94,34.75,58.97,33.92,59.81z M32.54,53.24
		c-1.36-1.4-2.76-2.81-3.88-4.39c-1.9-2.69-2.11-5.78-1.55-8.95c0.02-0.12,0.23-0.3,0.36-0.3c3.4-0.02,6.8-0.01,10.28-0.01
		c0,1.06-0.01,2.03,0,3c0.01,1.65,1.3,2.94,2.95,2.94c2.5,0.01,5,0,7.49,0c0.21,0,0.42-0.01,0.62,0.03c0.5,0.12,0.81,0.44,0.81,0.96
		c0,0.51-0.31,0.84-0.81,0.96c-0.2,0.05-0.41,0.03-0.62,0.03c-3.12,0-6.23,0-9.35,0c-1.79,0-3.09,1.27-3.08,3
		c0.01,1.68,1.32,2.94,3.07,2.95c0.6,0,1.2-0.02,1.8,0.01c0.63,0.02,1,0.38,1.07,0.98c0.01,0.12,0.01,0.25,0.01,0.37
		c0,1.5,0,3.01,0,4.55c-1.54,0-3.04,0-4.57,0C36.13,56.95,34.34,55.09,32.54,53.24z M42.65,71.27c-1.42-0.01-2.56-0.65-3.41-1.92
		c2.32,0,4.55,0,6.88,0C45.26,70.64,44.1,71.28,42.65,71.27z M47.34,67.33c-1.55,0-3.09,0-4.64,0c-1.59,0-3.18,0-4.77,0
		c-0.58,0-1.01-0.23-1.16-0.81c-0.16-0.62,0.38-1.16,1.16-1.17c1.77-0.01,3.55,0,5.32,0c1.36,0,2.72,0,4.08,0
		c0.78,0,1.26,0.37,1.28,0.96C48.64,66.92,48.14,67.33,47.34,67.33z M48.46,62.84c-0.19,0.26-0.6,0.5-0.91,0.5
		c-3.24,0.04-6.48,0.03-9.72,0.02c-0.63,0-1.07-0.43-1.08-0.97c-0.01-0.56,0.45-1,1.11-1c1.61-0.01,3.22,0,4.83,0
		c1.59,0,3.18-0.01,4.77,0C48.37,61.39,48.93,62.18,48.46,62.84z M48.39,59.03c-0.1,0.15-0.26,0.36-0.4,0.36
		c-1.42,0.03-2.84,0.02-4.32,0.02c0-1.54-0.08-3.03,0.02-4.5c0.14-1.99-1.34-3.65-3.48-3.44c-0.43,0.04-0.87,0.01-1.3,0
		c-0.71-0.02-1.19-0.42-1.18-1c0.01-0.58,0.48-0.98,1.2-0.98c3.22-0.01,6.44,0,9.66,0c1.54,0,2.84-1.12,3-2.58
		c0.17-1.56-0.76-2.92-2.28-3.29c-0.26-0.06-0.53-0.07-0.8-0.07c-2.48,0-4.95,0-7.43,0c-1.03,0-1.37-0.34-1.37-1.37
		c0-0.84,0-1.68,0-2.59c1.7,0,3.34,0,4.98,0c1.4,0,2.59-0.51,3.53-1.52c1.41-1.51,1.8-3.28,1.06-5.21c-0.75-1.94-2.24-3-4.33-3.19
		c-0.08-0.01-0.16-0.02-0.26-0.03c-0.05-0.92-0.1-1.84-0.15-2.8c1.59,0.15,3.13,0.57,4.58,1.26c5.26,2.52,8.39,6.67,9.26,12.43
		c0.61,4.07-0.53,7.63-3.43,10.59c-1.43,1.46-2.92,2.87-4.25,4.42C49.81,56.6,49.16,57.86,48.39,59.03z M71.4,56.39
		c-1.68,0.1-2.95,0.86-3.62,2.43c-0.67,1.58-0.33,3.02,0.75,4.27c-0.45,0.44-0.88,0.87-1.36,1.35c-1.19-1.04-2.62-1.42-4.21-0.77
		c-1.59,0.65-2.38,1.89-2.48,3.63c-0.63,0-1.26,0-1.92,0c-0.1-1.69-0.87-2.95-2.45-3.61c-1.58-0.66-3.02-0.32-4.35,0.86
		c-0.37-0.39-0.74-0.75-1.07-1.14c-0.1-0.12-0.15-0.32-0.13-0.47c0.11-0.77-0.01-1.47-0.41-2.14c-0.08-0.14-0.15-0.36-0.09-0.49
		c0.55-1.46,1.43-2.71,2.56-3.93c0.45,2.35,1.61,4.09,3.63,5.19c1.51,0.82,3.12,1.02,4.79,0.66c3.37-0.73,5.69-3.87,5.4-7.42
		c-0.27-3.29-3.01-6.33-7.04-6.33c0.38-1.36,0.75-2.73,1.14-4.12c0.38,1.44,1.26,2.52,2.75,2.98c1.49,0.46,2.8,0.07,3.94-0.95
		c0.46,0.46,0.9,0.89,1.33,1.32c-2.52,2.89-0.39,6.73,2.83,6.76C71.4,55.12,71.4,55.73,71.4,56.39z"/>
	<path class="st0" d="M59.52,52.46c-1.66,0-2.96,1.31-2.96,2.98c0,1.66,1.32,2.97,2.98,2.96c1.66,0,2.96-1.32,2.96-2.98
		C62.5,53.76,61.19,52.46,59.52,52.46z M59.49,56.42c-0.51-0.03-0.98-0.54-0.94-1.04c0.03-0.49,0.51-0.93,0.99-0.93
		c0.51,0.01,0.99,0.5,0.97,1.01C60.5,55.97,59.99,56.45,59.49,56.42z"/>
</g>
</svg>
