<?xml version="1.0" encoding="utf-8"?>
<!-- Generator: Adobe Illustrator 24.0.2, SVG Export Plug-In . SVG Version: 6.00 Build 0)  -->
<svg version="1.1" id="Layer_1" xmlns="http://www.w3.org/2000/svg" xmlns:xlink="http://www.w3.org/1999/xlink" x="0px" y="0px"
	 viewBox="0 0 85 85" style="enable-background:new 0 0 85 85;" xml:space="preserve">
<style type="text/css">
	.st0{fill:#037FFF;}
	.st1{fill:#FFFFFF;}
</style>
<g>
	<path class="st0" d="M10.11,72.87c0-12.75,0-25.49,0-38.24c0.74-2.44,1.34-2.88,3.93-2.88c2.56,0,5.12,0,7.68,0
		c0.23,0,0.45,0,0.71,0c0.01-0.28,0.03-0.49,0.03-0.69c0-6.58,0-13.16,0-19.74c0-0.19-0.02-0.38-0.04-0.57c17.57,0,35.15,0,52.72,0
		c0,17.63,0,35.25,0,52.95c-7.56,0-15.04,0-22.66,0c1.02,1.12,1.93,2.14,2.88,3.17c-0.95,1.05-1.87,2.08-2.92,3.23
		c7.69,0,15.18,0,22.67,0c0,1.93,0,3.78,0,5.64c-0.58,0-1.12,0-1.72,0c0-1.26,0-2.48,0-3.76c-0.31,0-0.56,0-0.8,0
		c-7.3,0-14.61,0-21.91-0.01c-0.35,0-0.72-0.06-1.04-0.19c-3.89-1.54-7.78-3.09-11.66-4.64c-0.18-0.07-0.36-0.16-0.63-0.28
		c0.31-0.13,0.5-0.22,0.7-0.3c3.77-1.5,7.54-3.01,11.31-4.49c0.5-0.19,1.06-0.3,1.59-0.3c7.2-0.02,14.4-0.01,21.6-0.01
		c0.27,0,0.54,0,0.81,0c0-14.09,0-28.09,0-42.1c-16.33,0-32.62,0-48.93,0c0,4.03,0,8.03,0,12.04c0.63,0,1.21,0,1.87,0
		c0-3.39,0-6.74,0-10.11c15.1,0,30.12,0,45.15,0c0,5.73,0,11.41,0,17.17c-12.16,0-24.28,0-36.41,0c0,0.66,0,1.24,0,1.92
		c4.1,0,8.17,0,12.23,0c0,4.5,0,8.91,0,13.38c-4.11,0-8.16,0-12.26,0c0,0.31,0,0.56,0,0.81c0,5.86,0,11.73,0,17.59
		c0,2.04-1.15,3.19-3.19,3.19c-2.86,0-5.72,0-8.57,0c-3.37,0-6.73,0.01-10.1,0c-1.43-0.01-2.54-0.85-2.87-2.14
		C10.21,73.31,10.16,73.09,10.11,72.87z M35,36.8c11.56,0,23.04,0,34.53,0c0-4.46,0-8.87,0-13.29c-13.78,0-27.5,0-41.27,0
		c0,2.75,0,5.46,0,8.24c1.22,0,2.4-0.01,3.58,0c1.99,0.02,3.15,1.19,3.16,3.17C35.01,35.53,35,36.14,35,36.8z M12.14,41.22
		c0,7.13,0,14.22,0,21.32c1.42,0,2.79,0,4.2,0c0-1.85,0-3.67,0-5.49c0-1.53,0.36-2.95,1.34-4.14c0.56-0.67,1.25-1.24,1.89-1.85
		c-2.01-2.64-2.06-5.19-0.11-7.02c1.83-1.72,4.56-1.77,6.46-0.12c0.88,0.77,1.41,1.75,1.55,2.9c0.21,1.68-0.36,3.1-1.6,4.28
		c0.13,0.09,0.21,0.16,0.3,0.21c1.82,1.18,2.89,2.84,3.02,5.02c0.09,1.5,0.05,3,0.06,4.51c0.01,0.56,0,1.13,0,1.7
		c1.32,0,2.55,0,3.8,0c0-7.12,0-14.2,0-21.31C26.07,41.22,19.12,41.22,12.14,41.22z M73.37,12.57c-16.33,0-32.63,0-48.93,0
		c0,1.73,0,3.41,0,5.1c16.33,0,32.62,0,48.93,0C73.37,15.96,73.37,14.28,73.37,12.57z M12.08,64.51c0,2.69,0,5.32,0,7.94
		c0,1.03,0.3,1.31,1.33,1.31c6.11,0,12.23,0,18.34,0c1.02,0,1.33-0.31,1.33-1.32c0-2.48,0-4.95,0-7.43c0-0.16-0.02-0.33-0.03-0.51
		C26.07,64.51,19.12,64.51,12.08,64.51z M45.37,52.11c0-3.2,0-6.33,0-9.49c-3.46,0-6.88,0-10.33,0c0,3.17,0,6.31,0,9.49
		C38.49,52.11,41.91,52.11,45.37,52.11z M33.09,39.24c0-1.51,0.01-2.95,0-4.38c-0.01-0.84-0.35-1.19-1.21-1.2
		c-6.2-0.01-12.4-0.01-18.6,0c-0.86,0-1.18,0.34-1.19,1.21c-0.01,1.31-0.01,2.62,0,3.94c0,0.14,0.04,0.28,0.07,0.43
		C19.13,39.24,26.07,39.24,33.09,39.24z M27.28,62.55c0-2.13,0.09-4.2-0.03-6.26c-0.13-2.28-2.09-3.98-4.38-4.02
		c-2.28-0.04-4.33,1.62-4.51,3.87c-0.16,1.95-0.08,3.93-0.11,5.89c0,0.16,0.02,0.33,0.04,0.51C21.3,62.55,24.28,62.55,27.28,62.55z
		 M25.61,47.5c0.01-1.6-1.24-2.87-2.84-2.87c-1.58-0.01-2.88,1.28-2.88,2.85c0,1.54,1.27,2.82,2.82,2.85
		C24.29,50.37,25.6,49.08,25.61,47.5z M52.79,66.88c-0.45-0.49-0.82-0.92-1.21-1.34c-0.52-0.55-0.98-1.44-1.58-1.56
		c-0.65-0.13-1.45,0.45-2.16,0.77c-0.17,0.08-0.37,0.34-0.37,0.53c-0.04,1.06-0.03,2.11,0,3.17c0.01,0.19,0.18,0.47,0.35,0.55
		c0.61,0.29,1.24,0.53,1.88,0.75c0.16,0.05,0.44,0.02,0.55-0.09C51.09,68.76,51.92,67.83,52.79,66.88z M45.51,68.09
		c0-0.84,0-1.59,0-2.43c-1.01,0.4-1.96,0.78-3.06,1.22C43.56,67.32,44.51,67.7,45.51,68.09z"/>
	<path class="st1" d="M29.77,35.56c-3.4,0-6.75,0-10.09,0c0,0.64,0,1.24,0,1.83c3.39,0,6.73,0,10.09,0
		C29.77,36.78,29.77,36.19,29.77,35.56z M15.85,35.55c0,0.64,0,1.24,0,1.82c0.64,0,1.24,0,1.83,0c0-0.63,0-1.21,0-1.82
		C17.07,35.55,16.48,35.55,15.85,35.55z"/>
	<path class="st0" d="M71.45,54.02c-6.97,0-13.91,0-20.9,0c0-4.42,0-8.85,0-13.31c6.97,0,13.92,0,20.9,0
		C71.45,45.16,71.45,49.57,71.45,54.02z M69.54,52.11c0-3.17,0-6.31,0-9.49c-5.71,0-11.39,0-17.1,0c0,3.17,0,6.31,0,9.49
		C58.15,52.11,63.83,52.11,69.54,52.11z"/>
	<path class="st0" d="M56.19,56.13c0,0.62,0,1.19,0,1.81c-0.62,0-1.21,0-1.85,0c0-0.59,0-1.18,0-1.81
		C54.93,56.13,55.53,56.13,56.19,56.13z"/>
	<path class="st0" d="M58.14,57.94c0-0.61,0-1.2,0-1.82c0.62,0,1.22,0,1.85,0c0,0.6,0,1.18,0,1.82
		C59.4,57.94,58.81,57.94,58.14,57.94z"/>
	<path class="st0" d="M61.99,56.11c0.61,0,1.19,0,1.81,0c0,0.62,0,1.21,0,1.85c-0.6,0-1.18,0-1.81,0
		C61.99,57.37,61.99,56.78,61.99,56.11z"/>
	<path class="st0" d="M65.78,57.95c0-0.63,0-1.21,0-1.83c0.61,0,1.19,0,1.83,0c0,0.58,0,1.18,0,1.83
		C67.03,57.95,66.43,57.95,65.78,57.95z"/>
	<path class="st0" d="M51.54,35.02c-0.05-0.08-0.07-0.1-0.07-0.12c-0.17-1.75-0.17-1.75,1.58-1.75c4.55,0,9.1,0,13.64,0
		c0.25,0,0.5,0,0.78,0c0,0.67,0,1.25,0,1.87C62.13,35.02,56.83,35.02,51.54,35.02z"/>
	<path class="st0" d="M63.64,29.38c0,0.63,0,1.21,0,1.83c-4.92,0-9.79,0-14.71,0c0-0.61,0-1.2,0-1.83
		C53.83,29.38,58.7,29.38,63.64,29.38z"/>
	<path class="st0" d="M67.46,25.62c0,0.6,0,1.18,0,1.81c-4.16,0-8.28,0-12.46,0c0-0.59,0-1.17,0-1.81
		C59.14,25.62,63.28,25.62,67.46,25.62z"/>
	<path class="st0" d="M65.62,31.2c0-0.62,0-1.2,0-1.83c0.61,0,1.19,0,1.82,0c0,0.6,0,1.19,0,1.83C66.85,31.2,66.27,31.2,65.62,31.2z
		"/>
	<path class="st0" d="M49.49,33.15c0,0.67,0,1.25,0,1.91c-0.53,0-1.03,0-1.52,0c-0.02,0-0.05,0.01-0.06,0
		c-0.6-0.36-0.18-0.93-0.28-1.4c-0.06-0.25-0.03-0.52,0.36-0.51C48.46,33.16,48.94,33.15,49.49,33.15z"/>
	<path class="st0" d="M45.67,33.2c0,0.61,0,1.19,0,1.82c-0.62,0-1.21,0-1.84,0c0-0.61,0-1.19,0-1.82
		C44.45,33.2,45.05,33.2,45.67,33.2z"/>
	<path class="st0" d="M71.41,14.21c0,0.61,0,1.19,0,1.82c-10.76,0-21.5,0-32.3,0c0-0.58,0-1.17,0-1.82
		C49.86,14.21,60.62,14.21,71.41,14.21z"/>
	<path class="st0" d="M28.42,16.06c-0.63,0-1.2,0-1.81,0c0-0.62,0-1.22,0-1.85c0.6,0,1.18,0,1.81,0
		C28.42,14.81,28.42,15.41,28.42,16.06z"/>
	<path class="st0" d="M34.24,16.03c0-0.6,0-1.18,0-1.81c0.6,0,1.2,0,1.83,0c0,0.59,0,1.18,0,1.81
		C35.47,16.03,34.87,16.03,34.24,16.03z"/>
	<path class="st0" d="M30.43,14.19c0.62,0,1.18,0,1.8,0c0,0.61,0,1.21,0,1.85c-0.59,0-1.17,0-1.8,0
		C30.43,15.44,30.43,14.85,30.43,14.19z"/>
	<path class="st0" d="M25.64,69.11c0.01,1.59-1.26,2.87-2.85,2.87c-1.58,0-2.88-1.31-2.86-2.87c0.01-1.55,1.29-2.83,2.83-2.84
		C24.34,66.25,25.64,67.53,25.64,69.11z M22.86,68.18c-0.49-0.04-0.95,0.37-0.99,0.87c-0.04,0.5,0.34,0.96,0.84,1.01
		c0.5,0.05,0.96-0.32,1.01-0.83C23.77,68.69,23.39,68.22,22.86,68.18z"/>
	<path class="st0" d="M29.77,35.56c0,0.63,0,1.22,0,1.83c-3.37,0-6.7,0-10.09,0c0-0.59,0-1.19,0-1.83
		C23.02,35.56,26.37,35.56,29.77,35.56z"/>
	<path class="st0" d="M15.85,35.55c0.63,0,1.21,0,1.83,0c0,0.61,0,1.19,0,1.82c-0.59,0-1.19,0-1.83,0
		C15.85,36.79,15.85,36.19,15.85,35.55z"/>
</g>
</svg>
